<?xml version="1.0" encoding="UTF-8" standalone="no"?><!DOCTYPE svg PUBLIC "-//W3C//DTD SVG 1.1//EN" "http://www.w3.org/Graphics/SVG/1.1/DTD/svg11.dtd"><svg width="100%" height="100%" viewBox="0 0 1024 438" version="1.1" xmlns="http://www.w3.org/2000/svg" xmlns:xlink="http://www.w3.org/1999/xlink" xml:space="preserve" xmlns:serif="http://www.serif.com/" style="fill-rule:evenodd;clip-rule:evenodd;stroke-linecap:round;stroke-linejoin:round;stroke-miterlimit:1.5;"><rect id="Tavola-da-disegno1" serif:id="Tavola da disegno1" x="0" y="0" width="1024" height="438" style="fill:none;"/><path d="M511.5,417.407c110.104,0 195.274,-87.553 257.753,-167.94c30.295,-38.978 51.875,-83.731 97.037,-107.973c21.979,-11.799 39.439,-13.951 63.983,-13.93c78.382,0.066 101.676,108.722 54.224,158.77c-16.556,17.461 -41.002,24.943 -64.632,24.529c-75.523,-1.324 -110.367,-70.55 -150.612,-122.33c-62.479,-80.387 -147.649,-167.94 -257.753,-167.94c-110.104,0 -195.274,87.553 -257.753,167.94c-30.295,38.978 -51.875,83.731 -97.037,107.973c-21.979,11.799 -39.439,13.951 -63.983,13.93c-78.382,-0.066 -101.676,-108.722 -54.224,-158.77c16.556,-17.461 41.002,-24.943 64.632,-24.529c75.523,1.324 110.367,70.55 150.612,122.33c62.479,80.387 147.649,167.94 257.753,167.94Z" style="fill:none;stroke:#fff;stroke-width:14px;"/></svg>